<?xml version="1.0" encoding="UTF-8" standalone="no"?>
<svg
   xmlns:dc="http://purl.org/dc/elements/1.1/"
   xmlns:cc="http://creativecommons.org/ns#"
   xmlns:rdf="http://www.w3.org/1999/02/22-rdf-syntax-ns#"
   xmlns:svg="http://www.w3.org/2000/svg"
   xmlns="http://www.w3.org/2000/svg"
   xmlns:sodipodi="http://sodipodi.sourceforge.net/DTD/sodipodi-0.dtd"
   xmlns:inkscape="http://www.inkscape.org/namespaces/inkscape"
   inkscape:version="1.0 (6e3e5246a0, 2020-05-07)"
   sodipodi:docname="erpnext-logo.svg"
   id="svg16"
   version="1.1"
   viewBox="0 0 88 88"
   height="88px"
   width="88px">
  <metadata
     id="metadata20">
    <rdf:RDF>
      <cc:Work
         rdf:about="">
        <dc:format>image/svg+xml</dc:format>
        <dc:type
           rdf:resource="http://purl.org/dc/dcmitype/StillImage" />
      </cc:Work>
    </rdf:RDF>
  </metadata>
  <sodipodi:namedview
     inkscape:current-layer="svg16"
     inkscape:window-maximized="1"
     inkscape:window-y="27"
     inkscape:window-x="48"
     inkscape:cy="111.24702"
     inkscape:cx="-67.752388"
     inkscape:zoom="1"
     showgrid="false"
     id="namedview18"
     inkscape:window-height="704"
     inkscape:window-width="1318"
     inkscape:pageshadow="2"
     inkscape:pageopacity="0"
     guidetolerance="10"
     gridtolerance="10"
     objecttolerance="10"
     borderopacity="1"
     bordercolor="#666666"
     pagecolor="#ffffff" />
  <!-- Generator: Sketch 44.1 (41455) - http://www.bohemiancoding.com/sketch -->
  <title
     id="title2">erpnext-logo</title>
  <desc
     id="desc4">Created with Sketch.</desc>
  <defs
     id="defs6" />
  <path
     id="path4587-3"
     d="m 57.556299,65.347223 c -4.065859,-0.52264 -6.725514,-1.366664 -9.68071,-3.072112 -5.1573,-2.976274 -8.583718,-7.462608 -9.566239,-12.525403 -0.746577,-3.847066 -0.474353,-7.335598 0.838608,-10.746645 2.048117,-5.320946 7.155145,-9.754371 13.440659,-11.667855 2.801689,-0.852925 4.126466,-1.018352 8.112705,-1.013059 3.139406,0.0042 3.807239,0.04275 5.168332,0.298654 5.279143,0.992552 9.666004,3.307525 12.549651,6.622502 1.060458,1.219094 2.607535,3.6504 2.45675,3.860911 -0.110662,0.154468 -6.503594,0.184568 -6.761916,0.03183 -0.0905,-0.05349 -0.476529,-0.514192 -0.857902,-1.023793 -2.386977,-3.189457 -5.836782,-4.916707 -10.705659,-5.360138 -4.380203,-0.398933 -8.762544,0.5476 -11.965619,2.584423 -3.431684,2.182211 -5.523183,5.087563 -6.402767,8.894231 -0.339534,1.469487 -0.379978,5.449036 -0.0703,6.919289 0.865011,4.106839 3.384544,7.47628 7.211776,9.644527 1.53839,0.871546 3.159772,1.463141 5.203638,1.898685 1.629251,0.347193 5.542166,0.411713 7.395773,0.121968 6.920921,-1.081876 11.397664,-5.087235 12.650573,-11.318519 0.129995,-0.64653 0.23635,-1.197493 0.23635,-1.224363 0,-0.02687 -4.142226,-0.04884 -9.204947,-0.04884 H 58.4001 v -1.985457 -1.985453 h 12.293116 12.293117 l -0.08316,2.547997 c -0.06785,2.080343 -0.153646,2.805788 -0.467245,3.952534 -1.773964,6.486871 -7.163174,11.599883 -14.424123,13.684927 -2.36574,0.679338 -3.937895,0.883297 -7.157049,0.928472 -1.56101,0.02191 -3.045302,0.01319 -3.298435,-0.01935 z"
     style="fill:#f31010;fill-opacity:1;stroke:#f31010;stroke-width:0.142502;stroke-opacity:1" />
  <g
     transform="matrix(0.85627707,0,0,0.85627707,212.60843,-96.18659)"
     id="g48">
    <path
       style="fill:#000000;fill-opacity:1;stroke:#000000;stroke-width:0.15648;stroke-opacity:1"
       d="m -241.32977,187.65512 c 0.004,-0.0664 3.72297,-10.33098 8.26502,-22.81026 l 8.25828,-22.6896 h 3.32878 3.32878 l 8.12675,22.44388 c 4.46971,12.34414 8.16813,22.60879 8.21872,22.81033 l 0.092,0.36643 -3.0925,-0.0425 -3.09251,-0.0425 -1.75543,-4.92911 -1.75543,-4.92912 h -10.13693 -10.13692 l -1.75544,4.92912 -1.75543,4.92911 -3.07223,0.0424 c -1.68972,0.0233 -3.06919,-0.0119 -3.06547,-0.0782 z"
       id="path4583" />
    <path
       style="fill:#ffffff;fill-opacity:1;stroke:#000000;stroke-width:0.157514;stroke-opacity:1"
       d="m -213.53619,171.61222 c -0.25932,-0.71001 -2.13809,-5.88912 -4.17504,-11.50918 -2.03695,-5.62005 -3.76332,-10.21922 -3.83638,-10.22035 -0.073,-0.003 -1.75907,4.49148 -3.74671,9.98357 -1.98763,5.4921 -3.86317,10.67215 -4.16788,11.51126 l -0.554,1.5256 h 8.47575 8.47575 z"
       id="path4581" />
  </g>
</svg>
